<svg id="Layer_1" data-name="Layer 1" xmlns="http://www.w3.org/2000/svg" viewBox="0 0 512 512"><defs><style>.cls-1{fill:#231f20;}</style></defs><title>church-glyph</title><path class="cls-1" d="M465,245.08l-53.52-25.6h0l-10.17-4.87L275.2,154.3V76.8h38.4V38.4H275.2V0H236.8V38.4H198.4V76.8h38.4v77.5l-134,64.07-2.32,1.11h0L47,245.08l16.56,34.64,26-12.46V492.8A19.2,19.2,0,0,0,108.8,512h57.6V416a89.6,89.6,0,0,1,179.2,0v96h57.6a19.2,19.2,0,0,0,19.2-19.2V267.27l26,12.46Z"/><path class="cls-1" d="M204.8,416v96h32V368.57A51.26,51.26,0,0,0,204.8,416Z"/><path class="cls-1" d="M275.2,368.57V512h32V416A51.26,51.26,0,0,0,275.2,368.57Z"/></svg>